<svg xmlns="http://www.w3.org/2000/svg" width="1000" height="480" viewBox="0 0 1000 480">
  <rect width="1000" height="480" fill="#f7f4ec"/>
  <rect x="16" y="16" width="968" height="448" fill="none" stroke="#d9d2bf" stroke-width="1"/>
  <text x="108" y="56" font-family="'DejaVu Sans Mono', Consolas, monospace" font-size="16" letter-spacing="2" fill="#5d5748">◆ TOKENS POR DÍA · OPENROUTER</text>
  <text x="108" y="88" font-family="Georgia, 'DejaVu Serif', serif" font-size="26" font-style="italic" fill="#1c1a16">OpenAI: gpt-oss-20b</text>
  <line x1="108" y1="408.0" x2="928" y2="408.0" stroke="#d9d2bf" stroke-width="1"/>
  <text x="94" y="413" text-anchor="end" font-family="'DejaVu Sans Mono', Consolas, monospace" font-size="15" fill="#8a8271">0</text>
  <line x1="108" y1="333.5" x2="928" y2="333.5" stroke="#d9d2bf" stroke-width="1"/>
  <text x="94" y="338.5" text-anchor="end" font-family="'DejaVu Sans Mono', Consolas, monospace" font-size="15" fill="#8a8271">20.8B</text>
  <line x1="108" y1="259.0" x2="928" y2="259.0" stroke="#d9d2bf" stroke-width="1"/>
  <text x="94" y="264" text-anchor="end" font-family="'DejaVu Sans Mono', Consolas, monospace" font-size="15" fill="#8a8271">41.6B</text>
  <line x1="108" y1="184.5" x2="928" y2="184.5" stroke="#d9d2bf" stroke-width="1"/>
  <text x="94" y="189.5" text-anchor="end" font-family="'DejaVu Sans Mono', Consolas, monospace" font-size="15" fill="#8a8271">62.4B</text>
  <line x1="108" y1="110.0" x2="928" y2="110.0" stroke="#d9d2bf" stroke-width="1"/>
  <text x="94" y="115" text-anchor="end" font-family="'DejaVu Sans Mono', Consolas, monospace" font-size="15" fill="#8a8271">83.2B</text>
  <path d="M 108,408.0 L 108.0,403.1 L 110.9,398.1 L 113.9,404.0 L 116.8,403.2 L 119.7,404.0 L 122.6,400.5 L 125.6,400.8 L 128.5,401.8 L 131.4,402.3 L 134.4,402.7 L 137.3,401.3 L 140.2,402.9 L 143.1,400.1 L 146.1,398.0 L 149.0,396.9 L 151.9,399.4 L 154.9,401.9 L 157.8,398.5 L 160.7,398.7 L 163.6,402.1 L 166.6,402.5 L 169.5,402.2 L 172.4,403.2 L 175.4,401.2 L 178.3,398.2 L 181.2,399.8 L 184.1,402.9 L 187.1,400.5 L 190.0,399.2 L 192.9,397.9 L 195.9,401.3 L 198.8,400.9 L 201.7,402.0 L 204.6,394.8 L 207.6,401.3 L 210.5,390.9 L 213.4,393.0 L 216.4,396.8 L 219.3,402.5 L 222.2,400.0 L 225.1,402.1 L 228.1,403.7 L 231.0,399.8 L 233.9,400.2 L 236.9,401.8 L 239.8,401.0 L 242.7,385.9 L 245.6,318.4 L 248.6,287.7 L 251.5,400.4 L 254.4,394.4 L 257.4,397.3 L 260.3,397.5 L 263.2,400.3 L 266.1,331.7 L 269.1,280.9 L 272.0,320.3 L 274.9,328.6 L 277.9,344.7 L 280.8,324.9 L 283.7,358.5 L 286.6,329.9 L 289.6,327.1 L 292.5,262.0 L 295.4,361.1 L 298.4,396.1 L 301.3,389.3 L 304.2,394.9 L 307.1,386.6 L 310.1,390.9 L 313.0,395.9 L 315.9,391.2 L 318.9,389.6 L 321.8,388.9 L 324.7,386.5 L 327.6,395.7 L 330.6,388.2 L 333.5,387.6 L 336.4,389.8 L 339.4,367.0 L 342.3,379.5 L 345.2,398.1 L 348.1,395.2 L 351.1,396.9 L 354.0,396.0 L 356.9,395.3 L 359.9,395.8 L 362.8,392.6 L 365.7,391.1 L 368.6,377.8 L 371.6,389.0 L 374.5,388.5 L 377.4,391.9 L 380.4,389.7 L 383.3,388.0 L 386.2,388.0 L 389.1,394.1 L 392.1,392.5 L 395.0,392.6 L 397.9,394.5 L 400.9,388.0 L 403.8,388.3 L 406.7,392.1 L 409.6,394.8 L 412.6,390.0 L 415.5,385.9 L 418.4,391.5 L 421.4,391.4 L 424.3,383.6 L 427.2,384.4 L 430.1,387.2 L 433.1,396.0 L 436.0,392.9 L 438.9,390.8 L 441.9,383.5 L 444.8,388.6 L 447.7,384.6 L 450.6,377.5 L 453.6,378.2 L 456.5,385.7 L 459.4,352.2 L 462.4,349.7 L 465.3,372.8 L 468.2,388.9 L 471.1,390.7 L 474.1,389.0 L 477.0,391.7 L 479.9,385.6 L 482.9,384.7 L 485.8,386.3 L 488.7,386.5 L 491.6,381.7 L 494.6,390.1 L 497.5,386.9 L 500.4,387.0 L 503.4,391.1 L 506.3,390.3 L 509.2,389.9 L 512.1,392.4 L 515.1,387.8 L 518.0,388.6 L 520.9,383.8 L 523.9,389.1 L 526.8,390.3 L 529.7,391.5 L 532.6,385.2 L 535.6,395.9 L 538.5,391.7 L 541.4,393.3 L 544.4,391.5 L 547.3,385.9 L 550.2,375.2 L 553.1,384.1 L 556.1,381.0 L 559.0,382.8 L 561.9,376.6 L 564.9,376.3 L 567.8,377.3 L 570.7,380.9 L 573.6,389.4 L 576.6,389.4 L 579.5,382.3 L 582.4,379.3 L 585.4,378.5 L 588.3,374.8 L 591.2,387.4 L 594.1,387.7 L 597.1,388.4 L 600.0,384.0 L 602.9,388.0 L 605.9,377.5 L 608.8,388.1 L 611.7,388.2 L 614.6,390.8 L 617.6,369.8 L 620.5,388.7 L 623.4,388.6 L 626.4,381.6 L 629.3,374.7 L 632.2,388.8 L 635.1,392.5 L 638.1,386.8 L 641.0,383.5 L 643.9,376.0 L 646.9,367.0 L 649.8,378.2 L 652.7,378.7 L 655.6,385.3 L 658.6,384.4 L 661.5,370.2 L 664.4,383.1 L 667.4,386.8 L 670.3,383.1 L 673.2,386.9 L 676.1,391.3 L 679.1,392.5 L 682.0,388.1 L 684.9,377.8 L 687.9,383.2 L 690.8,382.8 L 693.7,344.2 L 696.6,345.2 L 699.6,351.0 L 702.5,348.8 L 705.4,286.9 L 708.4,354.9 L 711.3,357.3 L 714.2,365.1 L 717.1,358.0 L 720.1,362.2 L 723.0,372.1 L 725.9,370.5 L 728.9,384.1 L 731.8,383.9 L 734.7,375.0 L 737.6,367.9 L 740.6,374.2 L 743.5,377.4 L 746.4,373.8 L 749.4,378.4 L 752.3,361.7 L 755.2,353.9 L 758.1,351.6 L 761.1,353.0 L 764.0,366.0 L 766.9,361.2 L 769.9,379.2 L 772.8,378.9 L 775.7,375.6 L 778.6,383.4 L 781.6,371.1 L 784.5,374.1 L 787.4,380.5 L 790.4,378.5 L 793.3,386.7 L 796.2,365.0 L 799.1,359.0 L 802.1,370.6 L 805.0,359.8 L 807.9,354.9 L 810.9,357.3 L 813.8,360.4 L 816.7,338.7 L 819.6,316.1 L 822.6,287.6 L 825.5,316.7 L 828.4,282.1 L 831.4,325.3 L 834.3,320.5 L 837.2,296.0 L 840.1,292.8 L 843.1,299.5 L 846.0,343.8 L 848.9,336.3 L 851.9,314.1 L 854.8,311.2 L 857.7,315.7 L 860.6,323.0 L 863.6,338.7 L 866.5,346.8 L 869.4,351.3 L 872.4,336.6 L 875.3,321.3 L 878.2,322.6 L 881.1,337.1 L 884.1,341.6 L 887.0,310.7 L 889.9,302.4 L 892.9,209.2 L 895.8,179.5 L 898.7,175.4 L 901.6,167.2 L 904.6,157.0 L 907.5,110.0 L 910.4,156.8 L 913.4,165.6 L 916.3,182.7 L 919.2,240.7 L 922.1,266.3 L 925.1,250.8 L 928.0,244.3 L 928.0,408.0 Z" fill="#96700f" fill-opacity="0.14"/>
  <polyline points="108.0,403.1 110.9,398.1 113.9,404.0 116.8,403.2 119.7,404.0 122.6,400.5 125.6,400.8 128.5,401.8 131.4,402.3 134.4,402.7 137.3,401.3 140.2,402.9 143.1,400.1 146.1,398.0 149.0,396.9 151.9,399.4 154.9,401.9 157.8,398.5 160.7,398.7 163.6,402.1 166.6,402.5 169.5,402.2 172.4,403.2 175.4,401.2 178.3,398.2 181.2,399.8 184.1,402.9 187.1,400.5 190.0,399.2 192.9,397.9 195.9,401.3 198.8,400.9 201.7,402.0 204.6,394.8 207.6,401.3 210.5,390.9 213.4,393.0 216.4,396.8 219.3,402.5 222.2,400.0 225.1,402.1 228.1,403.7 231.0,399.8 233.9,400.2 236.9,401.8 239.8,401.0 242.7,385.9 245.6,318.4 248.6,287.7 251.5,400.4 254.4,394.4 257.4,397.3 260.3,397.5 263.2,400.3 266.1,331.7 269.1,280.9 272.0,320.3 274.9,328.6 277.9,344.7 280.8,324.9 283.7,358.5 286.6,329.9 289.6,327.1 292.5,262.0 295.4,361.1 298.4,396.1 301.3,389.3 304.2,394.9 307.1,386.6 310.1,390.9 313.0,395.9 315.9,391.2 318.9,389.6 321.8,388.9 324.7,386.5 327.6,395.7 330.6,388.2 333.5,387.6 336.4,389.8 339.4,367.0 342.3,379.5 345.2,398.1 348.1,395.2 351.1,396.9 354.0,396.0 356.9,395.3 359.9,395.8 362.8,392.6 365.7,391.1 368.6,377.8 371.6,389.0 374.5,388.5 377.4,391.9 380.4,389.7 383.3,388.0 386.2,388.0 389.1,394.1 392.1,392.5 395.0,392.6 397.9,394.5 400.9,388.0 403.8,388.3 406.7,392.1 409.6,394.8 412.6,390.0 415.5,385.9 418.4,391.5 421.4,391.4 424.3,383.6 427.2,384.4 430.1,387.2 433.1,396.0 436.0,392.9 438.9,390.8 441.9,383.5 444.8,388.6 447.7,384.6 450.6,377.5 453.6,378.2 456.5,385.7 459.4,352.2 462.4,349.7 465.3,372.8 468.2,388.9 471.1,390.7 474.1,389.0 477.0,391.7 479.9,385.6 482.9,384.7 485.8,386.3 488.7,386.5 491.6,381.7 494.6,390.1 497.5,386.9 500.4,387.0 503.4,391.1 506.3,390.3 509.2,389.9 512.1,392.4 515.1,387.8 518.0,388.6 520.9,383.8 523.9,389.1 526.8,390.3 529.7,391.5 532.6,385.2 535.6,395.9 538.5,391.7 541.4,393.3 544.4,391.5 547.3,385.9 550.2,375.2 553.1,384.1 556.1,381.0 559.0,382.8 561.9,376.6 564.9,376.3 567.8,377.3 570.7,380.9 573.6,389.4 576.6,389.4 579.5,382.3 582.4,379.3 585.4,378.5 588.3,374.8 591.2,387.4 594.1,387.7 597.1,388.4 600.0,384.0 602.9,388.0 605.9,377.5 608.8,388.1 611.7,388.2 614.6,390.8 617.6,369.8 620.5,388.7 623.4,388.6 626.4,381.6 629.3,374.7 632.2,388.8 635.1,392.5 638.1,386.8 641.0,383.5 643.9,376.0 646.9,367.0 649.8,378.2 652.7,378.7 655.6,385.3 658.6,384.4 661.5,370.2 664.4,383.1 667.4,386.8 670.3,383.1 673.2,386.9 676.1,391.3 679.1,392.5 682.0,388.1 684.9,377.8 687.9,383.2 690.8,382.8 693.7,344.2 696.6,345.2 699.6,351.0 702.5,348.8 705.4,286.9 708.4,354.9 711.3,357.3 714.2,365.1 717.1,358.0 720.1,362.2 723.0,372.1 725.9,370.5 728.9,384.1 731.8,383.9 734.7,375.0 737.6,367.9 740.6,374.2 743.5,377.4 746.4,373.8 749.4,378.4 752.3,361.7 755.2,353.9 758.1,351.6 761.1,353.0 764.0,366.0 766.9,361.2 769.9,379.2 772.8,378.9 775.7,375.6 778.6,383.4 781.6,371.1 784.5,374.1 787.4,380.5 790.4,378.5 793.3,386.7 796.2,365.0 799.1,359.0 802.1,370.6 805.0,359.8 807.9,354.9 810.9,357.3 813.8,360.4 816.7,338.7 819.6,316.1 822.6,287.6 825.5,316.7 828.4,282.1 831.4,325.3 834.3,320.5 837.2,296.0 840.1,292.8 843.1,299.5 846.0,343.8 848.9,336.3 851.9,314.1 854.8,311.2 857.7,315.7 860.6,323.0 863.6,338.7 866.5,346.8 869.4,351.3 872.4,336.6 875.3,321.3 878.2,322.6 881.1,337.1 884.1,341.6 887.0,310.7 889.9,302.4 892.9,209.2 895.8,179.5 898.7,175.4 901.6,167.2 904.6,157.0 907.5,110.0 910.4,156.8 913.4,165.6 916.3,182.7 919.2,240.7 922.1,266.3 925.1,250.8 928.0,244.3" fill="none" stroke="#96700f" stroke-width="2.5" stroke-linejoin="round" stroke-linecap="round"/>
  <circle cx="928.0" cy="244.3" r="4" fill="#96700f"/>
  <text x="108" y="444" text-anchor="start" font-family="'DejaVu Sans Mono', Consolas, monospace" font-size="15" fill="#8a8271">2025-08-06</text>
  <text x="518" y="444" text-anchor="middle" font-family="'DejaVu Sans Mono', Consolas, monospace" font-size="15" fill="#8a8271">2025-12-29</text>
  <text x="928" y="444" text-anchor="end" font-family="'DejaVu Sans Mono', Consolas, monospace" font-size="15" fill="#8a8271">2026-09-07</text>
</svg>