<svg xmlns="http://www.w3.org/2000/svg" width="1000" height="480" viewBox="0 0 1000 480">
  <rect width="1000" height="480" fill="#f7f4ec"/>
  <rect x="16" y="16" width="968" height="448" fill="none" stroke="#d9d2bf" stroke-width="1"/>
  <text x="108" y="56" font-family="'DejaVu Sans Mono', Consolas, monospace" font-size="16" letter-spacing="2" fill="#5d5748">◆ TOKENS POR DÍA · OPENROUTER</text>
  <text x="108" y="88" font-family="Georgia, 'DejaVu Serif', serif" font-size="26" font-style="italic" fill="#1c1a16">OpenAI: GPT-5.6 Luna Pro</text>
  <line x1="108" y1="408.0" x2="928" y2="408.0" stroke="#d9d2bf" stroke-width="1"/>
  <text x="94" y="413" text-anchor="end" font-family="'DejaVu Sans Mono', Consolas, monospace" font-size="15" fill="#8a8271">0</text>
  <line x1="108" y1="333.5" x2="928" y2="333.5" stroke="#d9d2bf" stroke-width="1"/>
  <text x="94" y="338.5" text-anchor="end" font-family="'DejaVu Sans Mono', Consolas, monospace" font-size="15" fill="#8a8271">36.6B</text>
  <line x1="108" y1="259.0" x2="928" y2="259.0" stroke="#d9d2bf" stroke-width="1"/>
  <text x="94" y="264" text-anchor="end" font-family="'DejaVu Sans Mono', Consolas, monospace" font-size="15" fill="#8a8271">73.2B</text>
  <line x1="108" y1="184.5" x2="928" y2="184.5" stroke="#d9d2bf" stroke-width="1"/>
  <text x="94" y="189.5" text-anchor="end" font-family="'DejaVu Sans Mono', Consolas, monospace" font-size="15" fill="#8a8271">109.8B</text>
  <line x1="108" y1="110.0" x2="928" y2="110.0" stroke="#d9d2bf" stroke-width="1"/>
  <text x="94" y="115" text-anchor="end" font-family="'DejaVu Sans Mono', Consolas, monospace" font-size="15" fill="#8a8271">146.5B</text>
  <path d="M 108,408.0 L 108.0,171.4 L 142.2,284.3 L 176.3,306.6 L 210.5,288.0 L 244.7,259.2 L 278.8,212.8 L 313.0,205.4 L 347.2,227.8 L 381.3,280.9 L 415.5,282.4 L 449.7,247.0 L 483.8,110.0 L 518.0,242.5 L 552.2,243.0 L 586.3,214.4 L 620.5,266.9 L 654.7,278.8 L 688.8,255.3 L 723.0,152.4 L 757.2,260.7 L 791.3,298.8 L 825.5,274.5 L 859.7,338.4 L 893.8,340.5 L 928.0,240.9 L 928.0,408.0 Z" fill="#96700f" fill-opacity="0.14"/>
  <polyline points="108.0,171.4 142.2,284.3 176.3,306.6 210.5,288.0 244.7,259.2 278.8,212.8 313.0,205.4 347.2,227.8 381.3,280.9 415.5,282.4 449.7,247.0 483.8,110.0 518.0,242.5 552.2,243.0 586.3,214.4 620.5,266.9 654.7,278.8 688.8,255.3 723.0,152.4 757.2,260.7 791.3,298.8 825.5,274.5 859.7,338.4 893.8,340.5 928.0,240.9" fill="none" stroke="#96700f" stroke-width="2.5" stroke-linejoin="round" stroke-linecap="round"/>
  <circle cx="928.0" cy="240.9" r="4" fill="#96700f"/>
  <text x="108" y="444" text-anchor="start" font-family="'DejaVu Sans Mono', Consolas, monospace" font-size="15" fill="#8a8271">2026-07-31</text>
  <text x="518" y="444" text-anchor="middle" font-family="'DejaVu Sans Mono', Consolas, monospace" font-size="15" fill="#8a8271">2026-08-12</text>
  <text x="928" y="444" text-anchor="end" font-family="'DejaVu Sans Mono', Consolas, monospace" font-size="15" fill="#8a8271">2026-08-24</text>
</svg>