<svg xmlns="http://www.w3.org/2000/svg" width="1000" height="480" viewBox="0 0 1000 480">
  <rect width="1000" height="480" fill="#f7f4ec"/>
  <rect x="16" y="16" width="968" height="448" fill="none" stroke="#d9d2bf" stroke-width="1"/>
  <text x="108" y="56" font-family="'DejaVu Sans Mono', Consolas, monospace" font-size="16" letter-spacing="2" fill="#5d5748">◆ TOKENS POR DÍA · OPENROUTER</text>
  <text x="108" y="88" font-family="Georgia, 'DejaVu Serif', serif" font-size="26" font-style="italic" fill="#1c1a16">OpenAI: GPT-5.6 Luna</text>
  <line x1="108" y1="408.0" x2="928" y2="408.0" stroke="#d9d2bf" stroke-width="1"/>
  <text x="94" y="413" text-anchor="end" font-family="'DejaVu Sans Mono', Consolas, monospace" font-size="15" fill="#8a8271">0</text>
  <line x1="108" y1="333.5" x2="928" y2="333.5" stroke="#d9d2bf" stroke-width="1"/>
  <text x="94" y="338.5" text-anchor="end" font-family="'DejaVu Sans Mono', Consolas, monospace" font-size="15" fill="#8a8271">969.8B</text>
  <line x1="108" y1="259.0" x2="928" y2="259.0" stroke="#d9d2bf" stroke-width="1"/>
  <text x="94" y="264" text-anchor="end" font-family="'DejaVu Sans Mono', Consolas, monospace" font-size="15" fill="#8a8271">1939.6B</text>
  <line x1="108" y1="184.5" x2="928" y2="184.5" stroke="#d9d2bf" stroke-width="1"/>
  <text x="94" y="189.5" text-anchor="end" font-family="'DejaVu Sans Mono', Consolas, monospace" font-size="15" fill="#8a8271">2909.4B</text>
  <line x1="108" y1="110.0" x2="928" y2="110.0" stroke="#d9d2bf" stroke-width="1"/>
  <text x="94" y="115" text-anchor="end" font-family="'DejaVu Sans Mono', Consolas, monospace" font-size="15" fill="#8a8271">3879.2B</text>
  <path d="M 108,408.0 L 108.0,406.2 L 121.0,406.2 L 134.0,404.7 L 147.0,404.9 L 160.1,404.0 L 173.1,404.5 L 186.1,404.5 L 199.1,406.1 L 212.1,406.0 L 225.1,404.3 L 238.2,403.9 L 251.2,403.4 L 264.2,402.9 L 277.2,403.8 L 290.2,405.8 L 303.2,405.5 L 316.3,404.6 L 329.3,402.7 L 342.3,402.1 L 355.3,399.7 L 368.3,371.5 L 381.3,364.9 L 394.3,361.1 L 407.4,365.5 L 420.4,361.6 L 433.4,359.8 L 446.4,352.8 L 459.4,348.8 L 472.4,362.0 L 485.5,364.8 L 498.5,347.4 L 511.5,345.4 L 524.5,341.1 L 537.5,347.3 L 550.5,350.7 L 563.6,357.9 L 576.6,358.2 L 589.6,327.7 L 602.6,327.8 L 615.6,346.0 L 628.6,357.6 L 641.7,365.4 L 654.7,376.0 L 667.7,378.4 L 680.7,360.9 L 693.7,352.4 L 706.7,350.1 L 719.7,296.7 L 732.8,277.4 L 745.8,321.6 L 758.8,298.3 L 771.8,307.9 L 784.8,272.6 L 797.8,189.9 L 810.9,297.4 L 823.9,301.0 L 836.9,253.4 L 849.9,240.0 L 862.9,211.6 L 875.9,252.4 L 889.0,310.1 L 902.0,200.2 L 915.0,268.8 L 928.0,110.0 L 928.0,408.0 Z" fill="#96700f" fill-opacity="0.14"/>
  <polyline points="108.0,406.2 121.0,406.2 134.0,404.7 147.0,404.9 160.1,404.0 173.1,404.5 186.1,404.5 199.1,406.1 212.1,406.0 225.1,404.3 238.2,403.9 251.2,403.4 264.2,402.9 277.2,403.8 290.2,405.8 303.2,405.5 316.3,404.6 329.3,402.7 342.3,402.1 355.3,399.7 368.3,371.5 381.3,364.9 394.3,361.1 407.4,365.5 420.4,361.6 433.4,359.8 446.4,352.8 459.4,348.8 472.4,362.0 485.5,364.8 498.5,347.4 511.5,345.4 524.5,341.1 537.5,347.3 550.5,350.7 563.6,357.9 576.6,358.2 589.6,327.7 602.6,327.8 615.6,346.0 628.6,357.6 641.7,365.4 654.7,376.0 667.7,378.4 680.7,360.9 693.7,352.4 706.7,350.1 719.7,296.7 732.8,277.4 745.8,321.6 758.8,298.3 771.8,307.9 784.8,272.6 797.8,189.9 810.9,297.4 823.9,301.0 836.9,253.4 849.9,240.0 862.9,211.6 875.9,252.4 889.0,310.1 902.0,200.2 915.0,268.8 928.0,110.0" fill="none" stroke="#96700f" stroke-width="2.5" stroke-linejoin="round" stroke-linecap="round"/>
  <circle cx="928.0" cy="110.0" r="4" fill="#96700f"/>
  <text x="108" y="444" text-anchor="start" font-family="'DejaVu Sans Mono', Consolas, monospace" font-size="15" fill="#8a8271">2026-07-11</text>
  <text x="518" y="444" text-anchor="middle" font-family="'DejaVu Sans Mono', Consolas, monospace" font-size="15" fill="#8a8271">2026-08-11</text>
  <text x="928" y="444" text-anchor="end" font-family="'DejaVu Sans Mono', Consolas, monospace" font-size="15" fill="#8a8271">2026-09-12</text>
</svg>