<svg xmlns="http://www.w3.org/2000/svg" width="1000" height="480" viewBox="0 0 1000 480">
  <rect width="1000" height="480" fill="#f7f4ec"/>
  <rect x="16" y="16" width="968" height="448" fill="none" stroke="#d9d2bf" stroke-width="1"/>
  <text x="108" y="56" font-family="'DejaVu Sans Mono', Consolas, monospace" font-size="16" letter-spacing="2" fill="#5d5748">◆ TOKENS POR DÍA · OPENROUTER</text>
  <text x="108" y="88" font-family="Georgia, 'DejaVu Serif', serif" font-size="26" font-style="italic" fill="#1c1a16">OpenAI: GPT-5.6 Luna Pro</text>
  <line x1="108" y1="408.0" x2="928" y2="408.0" stroke="#d9d2bf" stroke-width="1"/>
  <text x="94" y="413" text-anchor="end" font-family="'DejaVu Sans Mono', Consolas, monospace" font-size="15" fill="#8a8271">0</text>
  <line x1="108" y1="333.5" x2="928" y2="333.5" stroke="#d9d2bf" stroke-width="1"/>
  <text x="94" y="338.5" text-anchor="end" font-family="'DejaVu Sans Mono', Consolas, monospace" font-size="15" fill="#8a8271">36.6B</text>
  <line x1="108" y1="259.0" x2="928" y2="259.0" stroke="#d9d2bf" stroke-width="1"/>
  <text x="94" y="264" text-anchor="end" font-family="'DejaVu Sans Mono', Consolas, monospace" font-size="15" fill="#8a8271">73.2B</text>
  <line x1="108" y1="184.5" x2="928" y2="184.5" stroke="#d9d2bf" stroke-width="1"/>
  <text x="94" y="189.5" text-anchor="end" font-family="'DejaVu Sans Mono', Consolas, monospace" font-size="15" fill="#8a8271">109.8B</text>
  <line x1="108" y1="110.0" x2="928" y2="110.0" stroke="#d9d2bf" stroke-width="1"/>
  <text x="94" y="115" text-anchor="end" font-family="'DejaVu Sans Mono', Consolas, monospace" font-size="15" fill="#8a8271">146.5B</text>
  <path d="M 108,408.0 L 108.0,171.4 L 129.0,284.3 L 150.1,306.6 L 171.1,288.0 L 192.1,259.2 L 213.1,212.8 L 234.2,205.4 L 255.2,227.8 L 276.2,280.9 L 297.2,282.4 L 318.3,247.0 L 339.3,110.0 L 360.3,242.5 L 381.3,243.0 L 402.4,214.4 L 423.4,266.9 L 444.4,278.8 L 465.4,255.3 L 486.5,152.4 L 507.5,260.7 L 528.5,298.8 L 549.5,274.5 L 570.6,338.4 L 591.6,340.5 L 612.6,240.9 L 633.6,248.4 L 654.7,264.1 L 675.7,276.6 L 696.7,294.4 L 717.7,334.0 L 738.8,327.9 L 759.8,301.7 L 780.8,290.2 L 801.8,295.0 L 822.9,286.1 L 843.9,304.6 L 864.9,331.7 L 885.9,323.7 L 907.0,284.1 L 928.0,286.3 L 928.0,408.0 Z" fill="#96700f" fill-opacity="0.14"/>
  <polyline points="108.0,171.4 129.0,284.3 150.1,306.6 171.1,288.0 192.1,259.2 213.1,212.8 234.2,205.4 255.2,227.8 276.2,280.9 297.2,282.4 318.3,247.0 339.3,110.0 360.3,242.5 381.3,243.0 402.4,214.4 423.4,266.9 444.4,278.8 465.4,255.3 486.5,152.4 507.5,260.7 528.5,298.8 549.5,274.5 570.6,338.4 591.6,340.5 612.6,240.9 633.6,248.4 654.7,264.1 675.7,276.6 696.7,294.4 717.7,334.0 738.8,327.9 759.8,301.7 780.8,290.2 801.8,295.0 822.9,286.1 843.9,304.6 864.9,331.7 885.9,323.7 907.0,284.1 928.0,286.3" fill="none" stroke="#96700f" stroke-width="2.5" stroke-linejoin="round" stroke-linecap="round"/>
  <circle cx="928.0" cy="286.3" r="4" fill="#96700f"/>
  <text x="108" y="444" text-anchor="start" font-family="'DejaVu Sans Mono', Consolas, monospace" font-size="15" fill="#8a8271">2026-07-31</text>
  <text x="518" y="444" text-anchor="middle" font-family="'DejaVu Sans Mono', Consolas, monospace" font-size="15" fill="#8a8271">2026-08-19</text>
  <text x="928" y="444" text-anchor="end" font-family="'DejaVu Sans Mono', Consolas, monospace" font-size="15" fill="#8a8271">2026-09-08</text>
</svg>