<svg xmlns="http://www.w3.org/2000/svg" width="1000" height="480" viewBox="0 0 1000 480">
  <rect width="1000" height="480" fill="#f7f4ec"/>
  <rect x="16" y="16" width="968" height="448" fill="none" stroke="#d9d2bf" stroke-width="1"/>
  <text x="108" y="56" font-family="'DejaVu Sans Mono', Consolas, monospace" font-size="16" letter-spacing="2" fill="#5d5748">◆ TOKENS POR DÍA · OPENROUTER</text>
  <text x="108" y="88" font-family="Georgia, 'DejaVu Serif', serif" font-size="26" font-style="italic" fill="#1c1a16">Qwen: Qwen3.7 Flash</text>
  <line x1="108" y1="408.0" x2="928" y2="408.0" stroke="#d9d2bf" stroke-width="1"/>
  <text x="94" y="413" text-anchor="end" font-family="'DejaVu Sans Mono', Consolas, monospace" font-size="15" fill="#8a8271">0</text>
  <line x1="108" y1="333.5" x2="928" y2="333.5" stroke="#d9d2bf" stroke-width="1"/>
  <text x="94" y="338.5" text-anchor="end" font-family="'DejaVu Sans Mono', Consolas, monospace" font-size="15" fill="#8a8271">15.7B</text>
  <line x1="108" y1="259.0" x2="928" y2="259.0" stroke="#d9d2bf" stroke-width="1"/>
  <text x="94" y="264" text-anchor="end" font-family="'DejaVu Sans Mono', Consolas, monospace" font-size="15" fill="#8a8271">31.3B</text>
  <line x1="108" y1="184.5" x2="928" y2="184.5" stroke="#d9d2bf" stroke-width="1"/>
  <text x="94" y="189.5" text-anchor="end" font-family="'DejaVu Sans Mono', Consolas, monospace" font-size="15" fill="#8a8271">47.0B</text>
  <line x1="108" y1="110.0" x2="928" y2="110.0" stroke="#d9d2bf" stroke-width="1"/>
  <text x="94" y="115" text-anchor="end" font-family="'DejaVu Sans Mono', Consolas, monospace" font-size="15" fill="#8a8271">62.6B</text>
  <path d="M 108,408.0 L 108.0,286.6 L 136.3,283.1 L 164.6,331.0 L 192.8,332.4 L 221.1,281.4 L 249.4,317.2 L 277.7,329.1 L 305.9,332.8 L 334.2,313.7 L 362.5,309.8 L 390.8,292.5 L 419.0,300.7 L 447.3,263.0 L 475.6,262.0 L 503.9,263.0 L 532.1,310.8 L 560.4,282.5 L 588.7,282.7 L 617.0,292.3 L 645.2,292.9 L 673.5,242.5 L 701.8,207.8 L 730.1,179.2 L 758.3,196.1 L 786.6,207.2 L 814.9,153.0 L 843.2,166.0 L 871.4,110.0 L 899.7,160.0 L 928.0,113.3 L 928.0,408.0 Z" fill="#96700f" fill-opacity="0.14"/>
  <polyline points="108.0,286.6 136.3,283.1 164.6,331.0 192.8,332.4 221.1,281.4 249.4,317.2 277.7,329.1 305.9,332.8 334.2,313.7 362.5,309.8 390.8,292.5 419.0,300.7 447.3,263.0 475.6,262.0 503.9,263.0 532.1,310.8 560.4,282.5 588.7,282.7 617.0,292.3 645.2,292.9 673.5,242.5 701.8,207.8 730.1,179.2 758.3,196.1 786.6,207.2 814.9,153.0 843.2,166.0 871.4,110.0 899.7,160.0 928.0,113.3" fill="none" stroke="#96700f" stroke-width="2.5" stroke-linejoin="round" stroke-linecap="round"/>
  <circle cx="928.0" cy="113.3" r="4" fill="#96700f"/>
  <text x="108" y="444" text-anchor="start" font-family="'DejaVu Sans Mono', Consolas, monospace" font-size="15" fill="#8a8271">2026-07-29</text>
  <text x="518" y="444" text-anchor="middle" font-family="'DejaVu Sans Mono', Consolas, monospace" font-size="15" fill="#8a8271">2026-08-20</text>
  <text x="928" y="444" text-anchor="end" font-family="'DejaVu Sans Mono', Consolas, monospace" font-size="15" fill="#8a8271">2026-09-18</text>
</svg>